HIERARCHY
ROOT Hips
{
    OFFSET   0.000000   0.000000   0.000000
    CHANNELS 6 Xposition Yposition Zposition Zrotation Xrotation Yrotation
    JOINT Chest
    {
        OFFSET   0.000000   8.007240   0.000000
        CHANNELS 3 Zrotation Xrotation Yrotation
        JOINT Chest2
        {
            OFFSET   0.000000  22.077100   0.000000
            CHANNELS 3 Zrotation Xrotation Yrotation
            JOINT Neck
            {
                OFFSET   0.000000  23.254800   0.000000
                CHANNELS 3 Zrotation Xrotation Yrotation
                JOINT Head
                {
                    OFFSET   0.000000  14.370000   1.956600
                    CHANNELS 3 Zrotation Xrotation Yrotation
                    End Site
                    {
                        OFFSET   0.000000  19.566000   0.000000
                    }
                }
            }
            JOINT LeftCollar
            {
                OFFSET   3.911900  19.017000  -0.467064
                CHANNELS 3 Zrotation Xrotation Yrotation
                JOINT LeftShoulder
                {
                    OFFSET  10.383700   0.000000   0.000000
                    CHANNELS 3 Zrotation Xrotation Yrotation
                    JOINT LeftElbow
                    {
                        OFFSET  26.662100   0.001476   0.000517
                        CHANNELS 3 Zrotation Xrotation Yrotation
                        JOINT LeftWrist
                        {
                            OFFSET  28.869000  -0.000025  -0.000106
                            CHANNELS 3 Zrotation Xrotation Yrotation
                            JOINT LeftFinger0
                            {
                                OFFSET   2.044660  -2.323460   3.252850
                                CHANNELS 3 Zrotation Xrotation Yrotation
                                JOINT LeftFinger01
                                {
                                    OFFSET   3.088130   0.000000   0.000000
                                    CHANNELS 3 Zrotation Xrotation Yrotation
                                    JOINT LeftFinger02
                                    {
                                        OFFSET   2.639460   0.000000   0.000000
                                        CHANNELS 3 Zrotation Xrotation Yrotation
                                        End Site
                                        {
                                            OFFSET   2.582190   0.000000   0.000000
                                        }
                                    }
                                }
                            }
                            JOINT LeftFinger1
                            {
                                OFFSET   8.364480   0.000000   3.252850
                                CHANNELS 3 Zrotation Xrotation Yrotation
                                JOINT LeftFinger11
                                {
                                    OFFSET   4.646930   0.000000   0.000000
                                    CHANNELS 3 Zrotation Xrotation Yrotation
                                    JOINT LeftFinger12
                                    {
                                        OFFSET   2.323460   0.000000   0.000000
                                        CHANNELS 3 Zrotation Xrotation Yrotation
                                        End Site
                                        {
                                            OFFSET   2.273050   0.000000   0.000000
                                        }
                                    }
                                }
                            }
                            JOINT LeftFinger2
                            {
                                OFFSET   8.364490   0.000015   1.078090
                                CHANNELS 3 Zrotation Xrotation Yrotation
                                JOINT LeftFinger21
                                {
                                    OFFSET   5.111620   0.000000   0.000000
                                    CHANNELS 3 Zrotation Xrotation Yrotation
                                    JOINT LeftFinger22
                                    {
                                        OFFSET   2.788160   0.000016   0.000000
                                        CHANNELS 3 Zrotation Xrotation Yrotation
                                        End Site
                                        {
                                            OFFSET   2.727660   0.000000   0.000000
                                        }
                                    }
                                }
                            }
                            JOINT LeftFinger3
                            {
                                OFFSET   7.899780   0.000017  -1.078090
                                CHANNELS 3 Zrotation Xrotation Yrotation
                                JOINT LeftFinger31
                                {
                                    OFFSET   4.646930   0.000000   0.000000
                                    CHANNELS 3 Zrotation Xrotation Yrotation
                                    JOINT LeftFinger32
                                    {
                                        OFFSET   2.323470   0.000000   0.000000
                                        CHANNELS 3 Zrotation Xrotation Yrotation
                                        End Site
                                        {
                                            OFFSET   2.273050   0.000000   0.000000
                                        }
                                    }
                                }
                            }
                            JOINT LeftFinger4
                            {
                                OFFSET   7.435090   0.000000  -3.252850
                                CHANNELS 3 Zrotation Xrotation Yrotation
                                JOINT LeftFinger41
                                {
                                    OFFSET   3.717550   0.000000   0.000000
                                    CHANNELS 3 Zrotation Xrotation Yrotation
                                    JOINT LeftFinger42
                                    {
                                        OFFSET   1.858770   0.000000   0.000000
                                        CHANNELS 3 Zrotation Xrotation Yrotation
                                        End Site
                                        {
                                            OFFSET   1.818440   0.000000   0.000000
                                        }
                                    }
                                }
                            }
                        }
                    }
                }
            }
            JOINT RightCollar
            {
                OFFSET  -3.911900  19.017000  -0.467063
                CHANNELS 3 Zrotation Xrotation Yrotation
                JOINT RightShoulder
                {
                    OFFSET -10.383700   0.000019   0.000000
                    CHANNELS 3 Zrotation Xrotation Yrotation
                    JOINT RightElbow
                    {
                        OFFSET -26.662100   0.001175   0.000102
                        CHANNELS 3 Zrotation Xrotation Yrotation
                        JOINT RightWrist
                        {
                            OFFSET -28.869000   0.000016  -0.000079
                            CHANNELS 3 Zrotation Xrotation Yrotation
                            JOINT RightFinger0
                            {
                                OFFSET  -2.044660  -2.323490   3.252850
                                CHANNELS 3 Zrotation Xrotation Yrotation
                                JOINT RightFinger01
                                {
                                    OFFSET  -3.088140   0.000000   0.000000
                                    CHANNELS 3 Zrotation Xrotation Yrotation
                                    JOINT RightFinger02
                                    {
                                        OFFSET  -2.639460   0.000000   0.000000
                                        CHANNELS 3 Zrotation Xrotation Yrotation
                                        End Site
                                        {
                                            OFFSET  -2.582190   0.000000   0.000000
                                        }
                                    }
                                }
                            }
                            JOINT RightFinger1
                            {
                                OFFSET  -8.364480   0.000000   3.252850
                                CHANNELS 3 Zrotation Xrotation Yrotation
                                JOINT RightFinger11
                                {
                                    OFFSET  -4.646930   0.000000   0.000000
                                    CHANNELS 3 Zrotation Xrotation Yrotation
                                    JOINT RightFinger12
                                    {
                                        OFFSET  -2.323470   0.000000   0.000000
                                        CHANNELS 3 Zrotation Xrotation Yrotation
                                        End Site
                                        {
                                            OFFSET  -2.273050   0.000000   0.000000
                                        }
                                    }
                                }
                            }
                            JOINT RightFinger2
                            {
                                OFFSET  -8.364480   0.000000   1.078090
                                CHANNELS 3 Zrotation Xrotation Yrotation
                                JOINT RightFinger21
                                {
                                    OFFSET  -5.111620   0.000000   0.000000
                                    CHANNELS 3 Zrotation Xrotation Yrotation
                                    JOINT RightFinger22
                                    {
                                        OFFSET  -2.788160   0.000000   0.000000
                                        CHANNELS 3 Zrotation Xrotation Yrotation
                                        End Site
                                        {
                                            OFFSET  -2.727660   0.000000   0.000000
                                        }
                                    }
                                }
                            }
                            JOINT RightFinger3
                            {
                                OFFSET  -7.899780   0.000000  -1.078090
                                CHANNELS 3 Zrotation Xrotation Yrotation
                                JOINT RightFinger31
                                {
                                    OFFSET  -4.646930   0.000000   0.000000
                                    CHANNELS 3 Zrotation Xrotation Yrotation
                                    JOINT RightFinger32
                                    {
                                        OFFSET  -2.323470   0.000000   0.000000
                                        CHANNELS 3 Zrotation Xrotation Yrotation
                                        End Site
                                        {
                                            OFFSET  -2.273050   0.000000   0.000000
                                        }
                                    }
                                }
                            }
                            JOINT RightFinger4
                            {
                                OFFSET  -7.435090   0.000000  -3.252850
                                CHANNELS 3 Zrotation Xrotation Yrotation
                                JOINT RightFinger41
                                {
                                    OFFSET  -3.717550   0.000000   0.000000
                                    CHANNELS 3 Zrotation Xrotation Yrotation
                                    JOINT RightFinger42
                                    {
                                        OFFSET  -1.858770   0.000000   0.000000
                                        CHANNELS 3 Zrotation Xrotation Yrotation
                                        End Site
                                        {
                                            OFFSET  -1.818440   0.000000   0.000000
                                        }
                                    }
                                }
                            }
                        }
                    }
                }
            }
        }
    }
    JOINT LeftHip
    {
        OFFSET   9.783040   0.000000   0.000000
        CHANNELS 3 Zrotation Xrotation Yrotation
        JOINT LeftKnee
        {
            OFFSET   0.000032 -41.789100  -0.002222
            CHANNELS 3 Zrotation Xrotation Yrotation
            JOINT LeftAnkle
            {
                OFFSET   0.000087 -41.133200  -0.000135
                CHANNELS 3 Zrotation Xrotation Yrotation
                JOINT LeftToe
                {
                    OFFSET   0.000000  -6.358960  14.674500
                    CHANNELS 3 Zrotation Xrotation Yrotation
                    End Site
                    {
                        OFFSET   0.000000   0.000000   3.913200
                    }
                }
            }
        }
    }
    JOINT RightHip
    {
        OFFSET  -9.783040   0.000000   0.000000
        CHANNELS 3 Zrotation Xrotation Yrotation
        JOINT RightKnee
        {
            OFFSET   0.000047 -41.789100  -0.000896
            CHANNELS 3 Zrotation Xrotation Yrotation
            JOINT RightAnkle
            {
                OFFSET  -0.000117 -41.133300  -0.000248
                CHANNELS 3 Zrotation Xrotation Yrotation
                JOINT RightToe
                {
                    OFFSET   0.000000  -6.358970  14.674500
                    CHANNELS 3 Zrotation Xrotation Yrotation
                    End Site
                    {
                        OFFSET   0.000000   0.000000   3.913200
                    }
                }
            }
        }
    }
}
MOTION
Frames: 5
Frame Time:   0.016667
 -1.392300  89.486400   0.119779  -2.532270  -6.080160   1.382910   1.305590   4.410820  -0.728285   2.679410   8.803420  -1.564490   1.860350  -0.970766   0.041921   3.051410  -1.961830   1.912990  -6.283740   2.187080   0.285202 -67.007100  18.558400  -5.707240  -4.731460 -11.003700 -11.393100   4.466710  -3.188130   6.828560  36.624700  23.750800 -65.989800 -10.675400   0.000000   0.000000  -0.337727  -0.001604  -0.002502 -30.293500   4.902680  -8.322830 -25.077600  -0.002685  -0.005856 -17.554300  -0.001822  -0.002274 -28.489900   0.383743  -0.707013 -36.069300  -0.004689  -0.005194 -24.022100  -0.004839  -0.001227 -28.424300  -3.209010   5.904980 -37.251600  -0.003678  -0.002151 -24.809500  -0.003591  -0.000826 -35.908800  -3.951920   5.436830 -54.144700  -0.003809  -0.001884 -36.060400  -0.002832  -0.003643   6.821310   0.321199   8.741000  69.108600  15.889000   2.186810  -1.312630   0.649621  13.826500 -15.962700 -15.479500   1.132680 -38.992000  29.154400  67.358000  25.377300  -0.000486   0.000352   7.688660   0.010878   0.006687  31.431600   4.305980   7.005240  25.932800  -0.000726   0.007353  18.154900   0.002567   0.004946  28.229400   1.652630   3.074550  34.021300  -0.008159   0.000445  22.658200   0.005746   0.002834  28.642600   0.889456   1.628350  38.151600  -0.006558  -0.001666  25.408900   0.001991  -0.000994  39.034600  -0.799343  -0.985622  58.576700   0.000809  -0.000111  39.002400  -0.000427   0.012643   4.066800   8.461150   4.603940   1.492610   0.116376  10.890600  -3.819920  -2.178350   1.767930   0.000000   0.000000   0.000000   3.303380   2.759450  -6.141930   0.601252   5.773830  -6.678200  -4.164110  -2.765530  -2.137010   0.000000   0.000000  -0.000000
 -1.406930  89.486400   0.110755  -2.528550  -6.098330   1.413810   1.301310   4.422400  -0.718150   2.670250   8.826890  -1.544100   1.860370  -0.988838   0.041916   3.051990  -1.998520   1.938840  -6.293690   2.187040   0.276105 -66.979000  18.577200  -5.737840  -4.725290 -10.998800 -11.399600   4.480380  -3.187500   6.847810  36.655500  23.765200 -65.973500 -10.692700   0.000000   0.000000  -0.346401  -0.001586  -0.002475 -30.277900   4.875280  -8.282160 -25.061800  -0.002687  -0.005859 -17.543200  -0.001818  -0.002277 -28.490300   0.364173  -0.670971 -36.062000  -0.004685  -0.005200 -24.017200  -0.004832  -0.001222 -28.419600  -3.230840   5.946200 -37.207400  -0.003675  -0.002153 -24.780100  -0.003584  -0.000822 -35.890400  -3.977280   5.476080 -54.121300  -0.003806  -0.001879 -36.044900  -0.002830  -0.003637   6.822590   0.313206   8.741420  69.097600  15.902500   2.190510  -1.313110   0.651246  13.825900 -15.952100 -15.457600   1.120150 -38.987700  29.154700  67.345000  25.392000  -0.000497   0.000334   7.696000   0.010878   0.006712  31.433200   4.300610   6.996910  25.933100  -0.000707   0.007338  18.154900   0.002566   0.004935  28.230500   1.640060   3.051490  33.996700  -0.008164   0.000421  22.641800   0.005735   0.002807  28.643000   0.881799   1.614390  38.133200  -0.006570  -0.001696  25.396600   0.001950  -0.001015  39.034600  -0.798998  -0.985241  58.569400   0.000759  -0.000151  39.002400  -0.000451   0.012634   4.077620   8.462050   4.599900   1.498920   0.138019  10.880500  -3.835430  -2.178060   1.748450  -0.000000   0.000000   0.000000   3.314330   2.758270  -6.154360   0.601344   5.796270  -6.664380  -4.169540  -2.769890  -2.168810   0.000000   0.000000  -0.000000
 -1.431720  89.486400   0.096165  -2.522110  -6.131550   1.466480   1.294710   4.442180  -0.700973   2.656020   8.866960  -1.509610   1.860410  -1.017520   0.041898   3.053990  -2.056710   1.982850  -6.309940   2.187000   0.256493 -66.930400  18.602500  -5.786730  -4.715990 -10.990100 -11.405800   4.498970  -3.184040   6.875370  36.707700  23.791800 -65.948400 -10.716800   0.000000   0.000000  -0.358426  -0.001553  -0.002426 -30.262200   4.847870  -8.241500 -25.045900  -0.002689  -0.005864 -17.532100  -0.001808  -0.002289 -28.490700   0.344603  -0.634929 -36.054700  -0.004675  -0.005218 -24.012400  -0.004813  -0.001210 -28.414800  -3.252670   5.987430 -37.163200  -0.003669  -0.002160 -24.750700  -0.003567  -0.000810 -35.863200  -4.002630   5.515340 -54.084000  -0.003798  -0.001863 -36.020000  -0.002823  -0.003620   6.824380   0.301984   8.741840  69.079800  15.928900   2.197110  -1.313590   0.652882  13.821700 -15.936100 -15.426000   1.095050 -38.975600  29.146800  67.321100  25.415700  -0.000534   0.000315   7.707870   0.010880   0.006777  31.436700   4.295270   6.985270  25.935500  -0.000656   0.007295  18.154900   0.002563   0.004907  28.232100   1.621950   3.018120  33.972100  -0.008181   0.000364  22.625400   0.005708   0.002746  28.643500   0.870202   1.593230  38.114700  -0.006601  -0.001766  25.384400   0.001854  -0.001063  39.034600  -0.798653  -0.984859  58.562100   0.000643  -0.000235  39.002400  -0.000502   0.012612   4.096840   8.468090   4.592150   1.509400   0.159665  10.869600  -3.861370  -2.175920   1.712590  -0.000000   0.000000  -0.000000   3.334690   2.756560  -6.171640   0.600428   5.838220  -6.649020  -4.182390  -2.779110  -2.223070   0.000000   0.000000   0.000000
 -1.452520  89.485900   0.085298  -2.519980  -6.164620   1.510710   1.289910   4.459330  -0.686130   2.645730   8.901680  -1.479890   1.865080  -1.038270   0.041859   3.060480  -2.098690   2.019490  -6.322990   2.187080   0.230061 -66.887100  18.609900  -5.822320  -4.710770 -10.982200 -11.402500   4.504680  -3.174850   6.886450  36.746500  23.820500 -65.937300 -10.721700   0.000035   0.000054  -0.360864  -0.001522  -0.002386 -30.266300   4.860920  -8.262020 -25.050800  -0.002689  -0.005866 -17.535500  -0.001793  -0.002312 -28.490600   0.352239  -0.648977 -36.061600  -0.004659  -0.005247 -24.017000  -0.004783  -0.001193 -28.415700  -3.247920   5.978560 -37.167400  -0.003660  -0.002172 -24.753500  -0.003540  -0.000792 -35.848700  -3.995150   5.508330 -54.061400  -0.003781  -0.001837 -36.004900  -0.002812  -0.003590   6.825190   0.297066   8.739030  69.066600  15.961300   2.204060  -1.310570   0.641193  13.803300 -15.928900 -15.410800   1.063380 -38.958100  29.120700  67.293300  25.434500  -0.000606   0.000376   7.717240   0.010887   0.006877  31.452400   4.295740   6.980340  25.948700  -0.000572   0.007219  18.163400   0.002556   0.004861  28.233200   1.612360   2.999940  33.984400  -0.008213   0.000276  22.633600   0.005666   0.002658  28.643800   0.862099   1.578340  38.119300  -0.006648  -0.001870  25.387500   0.001713  -0.001131  39.042300  -0.800603  -0.987023  58.573700   0.000469  -0.000348  39.010200  -0.000571   0.012579   4.114040   8.490560   4.582200   1.515310   0.155303  10.869100  -3.882530  -2.161460   1.676180   0.000000   0.000000   0.000000   3.355630   2.755580  -6.177110   0.597138   5.882590  -6.648140  -4.201090  -2.790530  -2.267940  -0.000000   0.000000   0.000000
 -1.473550  89.485200   0.075253  -2.520530  -6.200580   1.557100   1.287030   4.476450  -0.671946   2.638930   8.936300  -1.451590   1.872170  -1.055660   0.041813   3.068700  -2.133770   2.058280  -6.334070   2.187150   0.201080 -66.843200  18.610300  -5.853550  -4.707170 -10.973300 -11.396200   4.506050  -3.165400   6.894980  36.796900  23.849300 -65.920100 -10.729100   0.000095   0.000143  -0.364530  -0.001478  -0.002338 -30.270400   4.873970  -8.282530 -25.055600  -0.002690  -0.005871 -17.538900  -0.001774  -0.002342 -28.490500   0.359875  -0.663026 -36.068600  -0.004638  -0.005286 -24.021700  -0.004744  -0.001170 -28.416500  -3.243170   5.969700 -37.171600  -0.003648  -0.002189 -24.756300  -0.003504  -0.000769 -35.830400  -3.987670   5.501320 -54.033100  -0.003760  -0.001802 -35.986000  -0.002797  -0.003552   6.825500   0.295378   8.733490  69.054000  15.991700   2.210080  -1.305710   0.622697  13.773500 -15.920600 -15.401500   1.031980 -38.928700  29.090500  67.270000  25.449800  -0.000698   0.000461   7.724890   0.010897   0.007002  31.480800   4.298680   6.978740  25.971700  -0.000473   0.007130  18.180100   0.002547   0.004802  28.234100   1.608300   2.992070  34.013200  -0.008256   0.000177  22.652800   0.005616   0.002559  28.644000   0.857935   1.570660  38.141200  -0.006703  -0.001981  25.402100   0.001549  -0.001202  39.060700  -0.805522  -0.992464  58.601600   0.000280  -0.000466  39.028700  -0.000650   0.012543   4.132690   8.518290   4.574460   1.519280   0.150941  10.868600  -3.903910  -2.142870   1.636870  -0.000000   0.000000  -0.000000   3.378660   2.755130  -6.180670   0.591453   5.930150  -6.647770  -4.223520  -2.804500  -2.316640   0.000000   0.000000   0.000000
